<?xml version="1.0" encoding="UTF-8"?>
<svg xmlns="http://www.w3.org/2000/svg" version="1.1" viewBox="0 0 16 16">
  <!-- Generator: Adobe Illustrator 28.7.1, SVG Export Plug-In . SVG Version: 1.2.0 Build 142)  -->
  <g>
    <g id="Layer_1">
      <g>
        <path d="M5.9,9.9c1,.6,1.8.8,1.8.8h.9c0,.2,0,.4,0,.6,0,.7.6,1.3,1.3,1.3.7,0,1.3-.6,1.2-1.3,0-.4-.2-.8-.5-1.1-.4-.4-.8-.8-1.2-1.1-.9-.5-1.8-1-2.6-1.5-.8-.4-1.5-.9-2-1.6-.4-.5-.6-1.1-.4-1.7.2-.9,1-1.5,2-1.4.9,0,1.6.7,1.8,1.6v.3h2.5s0,0,0,0c0-.1,0-.2,0-.3,0,0,0,0,0,0h0s0,0,0,0c-.2-2.8-3.1-4.8-5.8-3.8C1.7,1.6.8,5.4,3,7.9c.8.9,1.8,1.5,2.9,2.1Z"/>
        <path d="M12.2,7.4c-.9-.7-1.9-1.2-2.9-1.8,0,0-.3-.2-.3-.2h-1.6v-.5c0,0,0-.2,0-.3,0-.7-.6-1.2-1.3-1.2-.7,0-1.2.5-1.3,1.2,0,.6.3,1.1.8,1.5.8.5,1.6,1,2.4,1.5.8.5,1.6,1,2.4,1.5.5.4.9.8,1.1,1.4.3.8.1,1.5-.4,2.1-.5.6-1.2.7-1.9.5-.8-.2-1.2-.8-1.3-1.6,0,0,0,0,0,0v-.3h-2.5c0,.2,0,.3,0,.3h0s0,0,0,0c0,0,0,0,0,0,.2,2.4,2.2,4.1,4.6,4.1,2.3,0,4.2-2,4.2-4.3,0-1.7-.7-3-2.1-4Z"/>
        <path d="M4.7,11.6v-.3h-2.5v.3h0c0,2.5,2.7,4.3,5.3,4.1-1.9-.9-2.7-2.4-2.8-4.1Z"/>
        <path d="M11.3,4.4v.4h2.5s0,0,0,0c0-.1,0-.2,0-.3h0s0,0,0,0C13.6,2.1,11.2,0,8.7.3c1.8,1,2.4,2.4,2.6,4.1Z"/>
      </g>
    </g>
  </g>
</svg>