<?xml version="1.0" encoding="UTF-8"?>
<svg xmlns="http://www.w3.org/2000/svg" version="1.1" viewBox="0 0 32 32">
  <defs>
    <style>
      .cls-1 {
        fill: #fff;
      }
    </style>
  </defs>
  <!-- Generator: Adobe Illustrator 28.7.1, SVG Export Plug-In . SVG Version: 1.2.0 Build 142)  -->
  <g>
    <g id="Layer_1">
      <g>
        <path class="cls-1" d="M11.9,19.7c1.9,1.1,3.5,1.5,3.5,1.5h1.7c0,.4,0,.8,0,1.2,0,1.4,1.1,2.5,2.5,2.5,1.4,0,2.5-1.1,2.3-2.6,0-.7-.4-1.5-.9-2-.7-.8-1.5-1.5-2.4-2-1.6-1.1-3.4-2-5.1-3-1.5-.9-2.9-1.8-3.9-3.1-.7-1-1.1-2.1-.8-3.3.4-1.7,2-2.8,3.8-2.8,1.7,0,3.1,1.4,3.4,3.1v.7h4.8s0,0,0,0c0-.3,0-.5,0-.7,0,0,0,0,0,0h0s0,0,0,0C20.5,3.6,14.9-.1,9.8,1.7,3.8,3.8,2.1,11,6.4,15.7c1.6,1.7,3.5,2.8,5.5,4Z"/>
        <path class="cls-1" d="M24,14.8c-1.7-1.3-3.7-2.4-5.5-3.5-.2,0-.5-.3-.5-.3h-3.1v-.9c0-.2,0-.3,0-.5,0-1.3-1.1-2.3-2.4-2.3-1.3,0-2.4,1-2.4,2.3,0,1.2.6,2.1,1.5,2.8,1.5,1,3,1.9,4.5,2.9,1.6,1,3.2,1.9,4.7,2.9,1,.7,1.8,1.6,2.2,2.8.5,1.5.3,2.8-.8,4-1,1.1-2.3,1.4-3.7.9-1.5-.5-2.3-1.5-2.6-3.1,0,0,0,0,0,0v-.5h-4.8v.2c0,.1,0,.3,0,.4h0s0,0,0,0c0,0,0,0,0,0,.3,4.5,4.2,8,8.8,7.9,4.4-.1,8.1-3.9,8.1-8.3,0-3.3-1.4-5.8-3.9-7.8Z"/>
        <path class="cls-1" d="M9.7,22.9v-.6h-4.7v.6h0c.2,4.9,5.2,8.4,10.2,7.9-3.7-1.8-5.2-4.6-5.5-7.9Z"/>
        <path class="cls-1" d="M22.3,9v.7h4.7c0,0,0,0,0,0,0-.2,0-.4,0-.6h0c0,0,0,0,0,0-.2-4.4-4.8-8.4-9.7-7.8,3.4,1.9,4.6,4.6,5,7.8Z"/>
      </g>
    </g>
  </g>
</svg>